<svg width="50" height="50" viewBox="0 0 50 50" fill="none" xmlns="http://www.w3.org/2000/svg">
<circle cx="25" cy="25" r="23.5" fill="white" stroke="#161C24" stroke-width="3"/>
<path d="M26.6154 13.6977C28.3923 13.6977 29.8462 12.1907 29.8462 10.3488C29.8462 8.50698 28.3923 7 26.6154 7C24.8385 7 23.3846 8.50698 23.3846 10.3488C23.3846 12.1907 24.8385 13.6977 26.6154 13.6977ZM20.6385 19.3907L16.1154 43H19.5077L22.4154 29.6047L25.8077 32.9535V43H29.0385V30.4419L25.6462 27.093L26.6154 22.0698C28.7154 24.5814 31.9462 26.2558 35.5 26.2558V22.907C32.4308 22.907 29.8462 21.2326 28.5538 18.8884L26.9385 16.2093C26.2923 15.2047 25.3231 14.5349 24.1923 14.5349C23.7077 14.5349 23.3846 14.7023 22.9 14.7023L14.5 18.386V26.2558H17.7308V20.5628L20.6385 19.3907Z" fill="#161C24"/>
</svg>
