<svg width="50" height="50" viewBox="0 0 50 50" fill="none" xmlns="http://www.w3.org/2000/svg">
<circle cx="25" cy="25" r="23.5" fill="white" stroke="#161C24" stroke-width="3"/>
<path d="M11.4651 36.5H38.5349C39.6598 36.5 40.361 35.2552 39.8059 34.2503L26.2637 10.2536C25.6939 9.24878 24.2915 9.24878 23.7364 10.2536L10.1941 34.2503C9.63898 35.2552 10.3402 36.5 11.4651 36.5ZM26.4682 32.0006H23.5464V29.001H26.4682V32.0006ZM25.0073 26.0015C24.2038 26.0015 23.5464 25.3266 23.5464 24.5017V21.5021C23.5464 20.6772 24.2038 20.0023 25.0073 20.0023C25.8108 20.0023 26.4682 20.6772 26.4682 21.5021V24.5017C26.4682 25.3266 25.8108 26.0015 25.0073 26.0015Z" fill="#161C24"/>
</svg>
